#define icon_width 16
#define icon_height 16
static unsigned char icon_bits[] = {
   0xff, 0xff, 0xff, 0xff, 0xff, 0xff, 0xff, 0xff, 0x9f, 0xff, 0x3f, 0xff,
   0x7f, 0xfe, 0xff, 0xfc, 0xff, 0xf9, 0xff, 0xfc, 0x7f, 0xfe, 0x3f, 0xff,
   0x9f, 0xff, 0xff, 0xff, 0xff, 0xff, 0xff, 0xff };
